<?xml version="1.0" encoding="UTF-8" standalone="no"?>
<!-- Created with Inkscape (http://www.inkscape.org/) -->

<svg
   width="128.09285mm"
   height="84.265587mm"
   viewBox="0 0 128.09285 84.265587"
   version="1.1"
   id="svg1"
   xml:space="preserve"
   inkscape:version="1.3.2 (091e20e, 2023-11-25, custom)"
   sodipodi:docname="baraem2.svg"
   xmlns:inkscape="http://www.inkscape.org/namespaces/inkscape"
   xmlns:sodipodi="http://sodipodi.sourceforge.net/DTD/sodipodi-0.dtd"
   xmlns="http://www.w3.org/2000/svg"
   xmlns:svg="http://www.w3.org/2000/svg"><sodipodi:namedview
     id="namedview1"
     pagecolor="#505050"
     bordercolor="#eeeeee"
     borderopacity="1"
     inkscape:showpageshadow="0"
     inkscape:pageopacity="0"
     inkscape:pagecheckerboard="0"
     inkscape:deskcolor="#505050"
     inkscape:document-units="mm"
     inkscape:zoom="0.46235269"
     inkscape:cx="-293.06632"
     inkscape:cy="48.664149"
     inkscape:window-width="1366"
     inkscape:window-height="715"
     inkscape:window-x="-8"
     inkscape:window-y="-8"
     inkscape:window-maximized="1"
     inkscape:current-layer="layer1"
     showborder="false" /><defs
     id="defs1" /><g
     inkscape:label="Layer 1"
     inkscape:groupmode="layer"
     id="layer1"
     transform="translate(-43.623455,-104.72547)"><path
       style="fill:#636363;fill-opacity:0;stroke:#ffffff;stroke-width:2.42767;stroke-dasharray:none;stroke-opacity:1"
       d="m 116.58444,113.4791 c -1.38429,-2.43041 9.0288,-7.11443 13.13582,-7.53121 2.77647,-0.28175 5.34191,7.18092 5.34191,7.18092 0,0 3.65187,9.89087 4.49183,15.06241 0.92482,5.69397 0.72438,11.53062 0.5573,17.29679 -0.0377,1.30331 -1.48102,3.2433 -0.35211,3.89568 1.618,0.935 2.72841,-3.23694 4.58562,-3.22514 1.13418,0.007 3.01793,1.92599 4.66698,2.37947 1.77449,0.48797 4.52429,-1.04073 5.33567,-2.89429 0.7046,-1.60962 -2.32519,-3.57686 -1.29673,-5.10924 1.96923,-2.93405 7.93353,-5.60053 12.24948,-5.35691 2.13937,0.12071 3.13796,3.1017 3.9151,5.0986 1.19777,3.07775 1.70991,6.67727 0.86509,9.87 -0.28868,1.091 -0.75251,1.74358 -1.92501,2.78509 -1.28775,1.14391 -2.6831,3.37914 -2.22533,3.8616 1.59191,1.67778 1.35381,3.05605 1.08532,5.27375 -0.17291,1.42826 -0.71389,3.32854 -3.13319,3.12253 -2.27135,-0.19339 -4.24877,2.35189 -6.42205,3.43309 -0.46048,0.2291 -1.04736,0.27308 -1.40099,0.64655 -1.402,1.48067 -1.21078,3.93541 -2.25654,5.68596 -1.72125,2.88133 -3.68576,5.84759 -6.48034,7.70635 -4.7355,3.14972 -10.60278,4.94099 -16.28842,5.07918 -1.62793,0.0395 -4.0536,0.25578 -4.7289,-1.226 -1.73594,-3.80909 -4.86452,-8.94568 -2.62716,-12.61039 2.74553,-4.49704 11.19284,-0.82683 15.23755,-4.20347 2.68602,-2.24237 5.20883,-6.02066 4.55376,-9.45779 -0.38674,-2.02921 -1.4405,-2.9199 -4.55376,-4.20345 -2.06658,-0.85203 -2.15545,3.63363 -3.98453,3.80938 -2.90162,0.27882 -7.76014,-1.98988 -7.35605,-4.72889 0.90665,-6.1456 2.44695,-8.57435 2.05795,-12.9169 -0.60707,-6.77681 -6.74306,-19.26588 -6.74306,-19.26588 0,0 -4.87683,-6.94996 -6.30521,-9.45779 z"
       id="path2"
       sodipodi:nodetypes="sscaaassassaassssaaaaasaaasasacs" /><path
       style="fill:#636363;fill-opacity:0;stroke:#ffffff;stroke-width:2.30525;stroke-dasharray:none;stroke-opacity:1"
       d="m 165.86992,156.69231 c -0.805,0 -4.17196,-1.86656 -6.31613,-1.54808 -2.04138,0.30322 -4.1097,1.49032 -5.32537,3.15807 -0.71083,0.97516 -0.91385,2.32778 -0.805,3.5296 0.22689,2.5049 2.97231,6.93537 2.97231,6.93537"
       id="path3"
       sodipodi:nodetypes="caaac" /><path
       style="fill:#636363;fill-opacity:0;stroke:#ffffff;stroke-width:2.42767;stroke-dasharray:none;stroke-opacity:1"
       d="m 127.6123,151.6642 c 0.37036,-2.19205 -0.77728,-5.44716 -1.93578,-7.46356 -0.55447,-0.96505 -2.15286,-0.49824 -2.58518,-1.37296 -0.47028,-0.95153 0.7793,-2.11156 0.52157,-3.14119 -0.54303,-2.16938 -2.55982,-4.21112 -4.08728,-5.32015 -3.65721,-2.65535 -8.86532,-3.75142 -13.2747,-2.75981 -3.57397,0.80375 -7.030397,3.40205 -8.766013,6.62802 -2.042545,3.79644 -3.847927,7.56126 -0.824424,12.90681 0.867033,1.5329 -5.831711,0.30291 -6.531639,-1.81519 -1.260685,-3.81504 -0.992275,-9.36865 -4.019517,-12.55287 -2.709763,-2.85029 -7.107836,-4.21121 -11.040315,-4.16098 -3.683982,0.047 -7.443071,1.76249 -10.239717,4.16098 -1.676319,1.43766 -1.58726,4.42508 -3.400289,5.68596 -2.971991,2.06688 -9.136039,3.52287 -12.187552,7.09957 -2.519191,2.95276 -3.678591,7.01322 -4.203465,10.85894 -0.483909,3.54559 -0.07218,7.28615 1.050868,10.68381 0.854692,2.58576 2.396932,4.96786 4.203461,7.00578 2.43203,2.74353 5.347545,5.23091 8.684667,6.74927 2.86058,1.30153 6.109999,1.78002 9.252598,1.81155 1.990497,0.0199 4.354602,0.24648 5.88236,-1.02962 3.246267,-2.71153 4.998887,-7.72581 4.378608,-11.90981 -0.153864,-1.03786 -0.991929,-1.98058 -1.896536,-2.51212 -3.159611,-1.85655 -7.677032,0.24821 -10.888997,-1.51621 -2.686263,-1.47564 -5.125756,-4.05516 -5.954908,-7.00577 -0.607609,-2.16223 -0.934509,-5.60538 1.050867,-6.65547 0.513649,-0.27168 1.074989,0.45053 1.576297,0.74435 2.582108,1.5134 4.459638,4.30493 7.312274,5.21054 3.227421,1.0246 7.201748,1.21009 10.158372,-0.0438 3.176133,-1.34696 4.620292,0.63152 8.625857,1.59885 5.797863,1.40014 12.399243,1.06161 18.471493,0.0425 3.70455,-0.62176 7.2249,-2.08924 10.73644,-3.42966 1.47747,-0.56399 2.9844,-1.30074 4.38479,-1.83218 2.6073,-0.98948 4.537,-1.6454 5.67716,-6.44666 0,-2e-5 -0.13137,-0.21887 -0.13137,-0.21887 z"
       id="path4"
       sodipodi:nodetypes="ssaasaassaaasaaaaaaaaaaaaaasssssss" /><path
       style="fill:#ffffff;fill-opacity:1;stroke:#ffffff;stroke-width:1.08073;stroke-dasharray:none;stroke-opacity:1"
       d="m 122.88964,141.89627 c 0,0 -3.81118,4.01382 -6.30519,4.02831 -0.91122,0.005 -1.43472,-1.23171 -2.32067,-1.44493 -0.84022,-0.20222 -1.90688,-0.31886 -2.58338,0.21893 -0.7443,0.59167 -1.08015,1.78614 -0.87572,2.71473 0.16655,0.75654 0.84912,1.44066 1.5763,1.70766 1.24227,0.45611 2.69467,-0.036 3.94075,-0.48164 2.84803,-1.01848 7.66256,-4.86027 7.66256,-4.86027 l -0.87572,-1.839 z"
       id="path5"
       sodipodi:nodetypes="caaaaaaccc" /><path
       style="display:inline;fill:#ffffff;fill-opacity:1;stroke:#ffffff;stroke-width:1.80576;stroke-dasharray:none;stroke-opacity:1"
       d="m 89.218148,146.49381 c 0,0 -1.664283,6.40114 -3.459099,9.10749 -1.751587,2.64119 -6.874414,6.56792 -6.874414,6.56792 l 2.67095,-0.74436 c 0,0 3.274049,-3.96225 4.641324,-6.13006 1.016871,-1.61224 1.973176,-3.28875 2.627164,-5.07918 0.264521,-0.72417 0.511698,-2.25563 0.511698,-2.25563 z"
       id="path6"
       sodipodi:nodetypes="caccaacc" /><path
       style="fill:#ffffff;fill-opacity:1;stroke:#ffffff;stroke-width:1.08073;stroke-dasharray:none;stroke-opacity:1"
       d="m 76.019848,144.61735 c -1.254591,-0.95988 -3.208729,-1.06044 -4.706136,-0.55731 -1.439136,0.48355 -2.848751,1.70298 -3.281914,3.15808 -0.525717,1.76601 -0.08155,4.10168 1.238458,5.38728 1.342668,1.30767 3.728909,1.69466 5.511133,1.11461 1.597572,-0.51995 3.105425,-2.06238 3.405759,-3.71537 0.34602,-1.90446 -0.630003,-4.21111 -2.1673,-5.38729 z"
       id="path7"
       sodipodi:nodetypes="aaaaaaa" /></g></svg>
