<?xml version="1.0" encoding="UTF-8" standalone="no"?>
<!-- Created with Inkscape (http://www.inkscape.org/) -->

<svg
   version="1.1"
   id="svg1"
   width="396.70346"
   height="250.34724"
   viewBox="0 0 396.70346 250.34724"
   sodipodi:docname="spacetoon2.svg"
   xml:space="preserve"
   inkscape:version="1.3.2 (091e20e, 2023-11-25, custom)"
   xmlns:inkscape="http://www.inkscape.org/namespaces/inkscape"
   xmlns:sodipodi="http://sodipodi.sourceforge.net/DTD/sodipodi-0.dtd"
   xmlns="http://www.w3.org/2000/svg"
   xmlns:svg="http://www.w3.org/2000/svg"><defs
     id="defs1" /><sodipodi:namedview
     id="namedview1"
     pagecolor="#505050"
     bordercolor="#eeeeee"
     borderopacity="1"
     inkscape:showpageshadow="0"
     inkscape:pageopacity="0"
     inkscape:pagecheckerboard="0"
     inkscape:deskcolor="#505050"
     inkscape:zoom="0.73251182"
     inkscape:cx="100.33968"
     inkscape:cy="100.33968"
     inkscape:window-width="1366"
     inkscape:window-height="715"
     inkscape:window-x="-8"
     inkscape:window-y="-8"
     inkscape:window-maximized="1"
     inkscape:current-layer="g1"
     borderlayer="true"
     showborder="false" /><g
     inkscape:groupmode="layer"
     inkscape:label="Image"
     id="g1"
     style="display:inline"
     transform="translate(-51.292358,-123.43305)"><path
       style="display:inline;fill:#ffffff;fill-opacity:0;stroke:#ffffff;stroke-width:5.4;stroke-dasharray:none;stroke-opacity:1"
       d="m 315.34255,256.94842 c -2.01883,-5.76647 -12.96052,-12.96052 -12.96052,-12.96052 0,0 -82.6886,-0.73317 -127.17683,-0.48266 -4.0431,0.0228 5.06665,-8.9369 8.2052,-8.93301 82.91454,0.1028 238.86768,1.68931 238.86768,1.68931 0,0 8.08423,0.48623 11.14967,-1.68931 6.68651,-4.74542 9.38848,-9.90797 11.50584,-21.741 0.72975,-4.07829 0.31295,-6.8122 -0.49619,-9.44226 -0.87227,-2.83527 -8.34775,-2.76886 -10.04434,-2.96485 v 2e-5 c -3.08614,-0.35652 -7.39986,-0.0756 -11.09993,-0.08 -97.33769,-0.1161 -292.00989,1.40729 -292.00989,1.40729 0,0 -12.04357,1.63874 -17.17709,4.60258 -6.19466,3.57649 -10.81929,9.49891 -15.173747,15.17375 -3.097333,4.03652 -7.63189,13.21882 -7.63189,13.21882 l -4.169897,6.13541 c -1.766153,2.59865 -4.162385,10.74803 -5.0312,13.77038 -0.816334,2.83978 -1.452798,7.86495 -1.993345,10.76726 -0.636938,3.41985 -0.364314,7.54742 1.424885,10.13556 1.701218,2.46087 5.832124,4.74168 9.105887,6.26097 2.523213,1.17096 4.175256,1.52757 4.175256,1.52757 0,0 1.451269,0.46996 3.033101,0.61392 3.23798,0.29467 8.53986,0.74013 10.7875,0.71893 7.0026,-0.0661 20.48362,-1.021 35.39226,-1.07152 18.36261,-0.0622 43.69388,-0.0337 58.58474,0.27988 3.33049,0.0701 -4.49437,8.27788 -7.81814,8.50073 -38.5314,2.58347 -124.314881,-0.68258 -124.314881,-0.68258 0,0 -3.054252,0.31955 -4.376656,1.02387 -0.97572,0.51968 -1.754775,1.38201 -2.428916,2.25815 -1.592373,2.06952 -2.817502,5.00868 -3.685636,6.91253 -2.257445,4.95066 -5.197147,12.77198 -5.986479,18.38756 -0.179942,1.28017 0.842812,1.07148 0.408694,3.39824 -0.36823,1.97362 2.51862,2.96704 4.449065,2.8807 23.499264,-1.05101 36.954197,-0.40284 58.719409,-0.71286 10.81475,-0.15405 22.42101,-0.4223 33.9599,-0.45308 34.95651,-0.0933 73.53374,-2.29858 108.61712,-0.87678 24.50916,0.99327 31.31447,-9.97621 31.31447,-9.97621 l 11.09856,-13.23987 c 0,0 -0.36122,0.60077 1.26814,-1.99479"
       id="path2"
       sodipodi:nodetypes="ccsscassssacaacssssscssssscaasssssssccc" /><path
       style="fill:#ffffff;fill-opacity:0;stroke:#ffffff;stroke-width:3.3;stroke-dasharray:none;stroke-opacity:1"
       d="m 236.26156,253.15463 c 0.75451,-1.57161 13.91174,-0.2286 22.9263,-0.362 2.62268,-0.0388 -5.39138,8.11325 -2.53078,7.97339 7.16812,-0.35048 12.62746,0 17.49321,0 1.56872,0 0.1637,3.74223 -1.54335,7.30512 -1.68768,3.52245 -4.11555,6.80314 -5.33454,6.80314 -6.65743,0 -16.83274,-0.181 -16.83274,-0.181 0,0 -1.01348,0.26209 -3.13727,4.70593 -1.0412,2.17861 2.15946,0.9887 4.76624,1.08599 1.19132,0.0445 3.8603,-0.0862 5.4068,-0.24824 2.0153,-0.21119 4.54806,-0.11376 4.54806,-0.11376 0,0 5.16323,-0.16347 4.88692,1.26698 -0.45207,2.34036 -1.95294,5.50982 -3.26234,8.05797 -1.38262,2.69061 -3.22443,4.82303 -5.48586,4.97381 -9.82682,0.65522 -20.95056,-0.12067 -32.15715,-0.12067 -1.99368,0 -2.66383,-3.12886 -3.2111,-5.04596 -0.55575,-1.9468 0.0643,-6.07336 0.0643,-6.07336 0,0 7.28657,-17.28652 13.4033,-30.02734 z"
       id="path3"
       sodipodi:nodetypes="sssssscssscssssacs" /><path
       style="fill:#ffffff;fill-opacity:0;stroke:#ffffff;stroke-width:3.3;stroke-dasharray:none;stroke-opacity:1"
       d="m 273.40308,266.43884 c 1.19182,-0.23791 3.41119,-1.51262 4.86212,-2.65481 2.32351,-1.82911 5.00113,-2.63625 7.10691,-2.63625 10.34511,0 19.761,-0.18667 36.07876,0.34129 3.04159,0.0984 2.12793,3.92869 2.11769,6.63833 -0.0149,3.93814 -1.50999,7.66713 -3.01649,11.32268 -1.44792,3.51343 -2.86732,6.95904 -4.88705,10.45731 -0.88075,1.5255 -2.79947,2.60101 -4.24988,3.32049 -1.74153,0.8639 -3.1094,1.21451 -5.22446,1.21451 h -31.79906 c -1.41264,0 -4.31258,-1.04962 -5.84847,-2.51374 -1.56673,-1.49352 -2.15264,-4.86036 -2.84658,-5.83645"
       id="path4"
       sodipodi:nodetypes="csssssssssac" /><path
       style="fill:#ffffff;fill-opacity:0;stroke:#ffffff;stroke-width:3.3;stroke-dasharray:none;stroke-opacity:1"
       d="m 325.79131,273.26467 c 1.19182,-0.23791 4.43507,-8.85038 6.56858,-10.16322 2.51847,-1.54972 5.00113,-2.63625 7.10691,-2.63625 10.34511,0 19.761,-0.18667 36.07876,0.34129 3.04159,0.0984 2.12793,3.92869 2.11769,6.63833 -0.0149,3.93814 -1.50999,7.66713 -3.01649,11.32268 -1.44792,3.51343 -2.86732,6.95904 -4.88705,10.45731 -0.88075,1.5255 -2.79947,2.60101 -4.24988,3.32049 -1.74153,0.8639 -3.1094,1.21451 -5.22446,1.21451 h -31.79906 c -1.41264,0 -4.8268,-0.65396 -5.84847,-2.51374 -2.97408,-5.4138 3.64931,-17.3175 2.95537,-18.29359"
       id="path5"
       sodipodi:nodetypes="csssssssssac" /><path
       style="fill:#ffffff;fill-opacity:0;stroke:#ffffff;stroke-width:3.3;stroke-dasharray:none;stroke-opacity:1"
       d="m 384.67919,260.7565 c 13.56677,0 29.23056,-0.24133 41.87067,-0.24133 2.6144,0 5.73712,3.87213 4.70592,6.27457 -4.63616,10.80114 -12.91113,28.23555 -12.91113,28.23555 h -23.52962 l 7.48121,-18.09971 h -9.89451 l -9.29118,18.22037 -13.75578,-0.36199 3.61994,-9.04986 c 0,0 2.89099,-4.63328 4.19303,-9.9932 1.00854,-4.15168 2.60984,-7.14163 4.07396,-10.12751 0.97838,-1.99526 1.36123,-4.85689 3.43749,-4.85689 z"
       id="path6"
       sodipodi:nodetypes="ssscccccccsss" /><path
       style="fill:#ffffff;fill-opacity:0.983403;stroke:#ffffff;stroke-width:3.3;stroke-dasharray:none;stroke-opacity:1"
       d="m 272.5212,282.75995 c 0,0 11.46007,0.17064 17.66183,0.17064 3.07762,0 1.69108,-11.85988 6.14325,-11.85988 4.82992,0 11.49015,0 17.23522,0 3.58764,0 -2.39115,9.08818 -5.54599,12.45714 -0.4174,0.44573 -1.62113,0.85323 -1.62113,0.85323 l -34.38512,0.42661 z"
       id="path7"
       sodipodi:nodetypes="cssssccc" /><path
       style="fill:#ffffff;fill-opacity:0.983403;stroke:#ffffff;stroke-width:3.3;stroke-dasharray:none;stroke-opacity:1"
       d="m 326.82033,283.24261 c 0,0 11.46007,0.17064 17.66183,0.17064 3.07762,0 1.69108,-11.85988 6.14325,-11.85988 4.82992,0 11.49015,0 17.23522,0 3.58764,0 -2.39115,9.08818 -5.54599,12.45714 -0.4174,0.44573 -1.62113,0.85323 -1.62113,0.85323 l -34.38512,0.42661 z"
       id="path8"
       sodipodi:nodetypes="cssssccc" /><path
       style="display:inline;fill:#000000;fill-opacity:0;stroke:#ffffff;stroke-width:3.3;stroke-dasharray:none;stroke-opacity:1"
       d="m 303.06678,189.41674 h 12.11585 c 0,0 -19.20024,-11.83367 -29.18041,-17.06457 -23.12556,-12.12079 -51.78435,-26.85815 -70.98862,-33.10527 -2.34243,-0.76199 -3.23923,-3.50395 -4.06717,-6.1521 -1.14604,-3.66559 -6.00438,-8.04699 -9.41384,-8.01149 -7.45614,0.0776 -7.61098,0.84313 -14.1636,4.26614 -11.15839,5.82902 -22.43647,-2.81031 -33.44656,-1.02387 -8.13579,1.32007 -17.04763,3.05636 -23.20781,8.53228 -6.19821,5.50973 -10.24775,13.95321 -11.26262,22.18394 -1.31376,10.65478 7.16712,31.39881 7.16712,31.39881 l 11.60391,-1.36516 c 0,0 -7.1281,-17.28446 -4.0955,-25.25557 3.0768,-8.08727 12.12323,-13.11655 20.13619,-16.38199 7.24656,-2.95312 12.47179,-2.97585 23.37846,-2.13307 5.46392,0.42222 7.95549,10.88604 12.37182,11.77456 2.72403,0.54805 6.39966,-0.558 8.89167,-2.38799 2.35842,-1.73189 8.90741,-3.59506 12.09775,-3.92591 29.48247,-3.0574 92.06336,38.65126 92.06336,38.65126 z"
       id="path10"
       sodipodi:nodetypes="ccassssaaaccaassssc" /><path
       style="fill:#000000;fill-opacity:0;stroke:#ffffff;stroke-width:3.3;stroke-dasharray:none;stroke-opacity:1"
       d="m 373.81936,243.62211 7.11922,-0.0603 10.9805,11.82514 -7.54155,0.48266 z"
       id="path11" /><path
       style="fill:#000000;fill-opacity:0;stroke:#ffffff;stroke-width:3.3;stroke-dasharray:none;stroke-opacity:1"
       d="m 413.04795,296.83822 6.22856,-0.42662 2.81566,-1.1092 c 0,0 8.9985,16.8564 11.34794,26.02348 1.75505,6.84787 3.72206,14.28546 1.91827,21.12065 -2.44836,9.27773 -8.3063,19.2894 -16.4104,23.65029 -12.55162,6.75414 -26.59725,6.78971 -41.29964,5.10921 -4.07678,-0.46598 -10.91951,-1.26587 -14.6888,-2.45458 -20.16103,-6.35813 -22.95646,-7.47758 -34.02746,-12.06648 -17.38369,-7.20549 -50.92052,-24.37428 -50.92052,-24.37428 l 16.41041,-9.41185 c 0,0 36.26221,16.99211 55.74711,20.51301 15.99075,2.88951 33.72042,6.42265 48.74855,0.24133 7.99607,-3.28892 15.03234,-10.35313 18.34104,-18.34104 1.32372,-3.19575 0.39453,-6.94068 0,-10.37716 -0.70639,-6.15298 -4.21072,-18.09676 -4.21072,-18.09676 z"
       id="path12"
       sodipodi:nodetypes="cccaassssccaaaac" /></g></svg>
